<svg width="73" height="73" viewBox="0 0 73 73" fill="none" xmlns="http://www.w3.org/2000/svg">
<path d="M44.6691 35.0172L19.418 30.5687V63.4393C19.4177 63.7965 19.4879 64.1503 19.6246 64.4804C19.7613 64.8105 19.9619 65.1103 20.2147 65.3627C20.4675 65.6151 20.7677 65.8152 21.098 65.9513C21.4283 66.0875 21.7822 66.1571 22.1395 66.1562H65.7114C66.069 66.1577 66.4234 66.0885 66.7543 65.9526C67.0851 65.8168 67.3858 65.6168 67.6391 65.3644C67.8925 65.1119 68.0934 64.8118 68.2304 64.4815C68.3674 64.1511 68.4378 63.7969 68.4375 63.4393V51.3281L44.6691 35.0172Z" fill="#185C37"/>
<path d="M44.6691 6.84376H22.1395C21.7822 6.84286 21.4283 6.91249 21.098 7.04865C20.7677 7.18482 20.4675 7.38484 20.2147 7.63725C19.9619 7.88967 19.7613 8.18951 19.6246 8.51958C19.4879 8.84965 19.4177 9.20346 19.418 9.56073V21.6719L44.6691 36.5L58.0395 40.9484L68.4375 36.5V21.6719L44.6691 6.84376Z" fill="#21A366"/>
<path d="M19.418 21.6719H44.6691V36.5H19.418V21.6719Z" fill="#107C41"/>
<path opacity="0.1" d="M37.49 18.7062H19.418V55.7766H37.49C38.2101 55.773 38.8998 55.4858 39.4097 54.9772C39.9195 54.4687 40.2085 53.7797 40.2138 53.0596V21.4232C40.2085 20.7031 39.9195 20.0141 39.4097 19.5056C38.8998 18.997 38.2101 18.7098 37.49 18.7062Z" fill="black"/>
<path opacity="0.2" d="M36.0049 20.1891H19.418V57.2594H36.0049C36.7251 57.2558 37.4148 56.9686 37.9246 56.4601C38.4344 55.9515 38.7234 55.2625 38.7287 54.5424V22.9061C38.7234 22.186 38.4344 21.497 37.9246 20.9884C37.4148 20.4799 36.7251 20.1927 36.0049 20.1891Z" fill="black"/>
<path opacity="0.2" d="M36.0049 20.1891H19.418V54.2938H36.0049C36.7251 54.2902 37.4148 54.003 37.9246 53.4944C38.4344 52.9859 38.7234 52.2969 38.7287 51.5768V22.9061C38.7234 22.186 38.4344 21.497 37.9246 20.9884C37.4148 20.4799 36.7251 20.1927 36.0049 20.1891Z" fill="black"/>
<path opacity="0.2" d="M34.5198 20.1891H19.418V54.2938H34.5198C35.24 54.2902 35.9297 54.003 36.4395 53.4944C36.9493 52.9859 37.2383 52.2969 37.2437 51.5768V22.9061C37.2383 22.186 36.9493 21.497 36.4395 20.9884C35.9297 20.4799 35.24 20.1927 34.5198 20.1891Z" fill="black"/>
<path d="M7.28631 20.189H34.5199C35.2413 20.1884 35.9334 20.4743 36.4442 20.9837C36.9549 21.4932 37.2425 22.1846 37.2437 22.906V50.0939C37.2425 50.8153 36.9549 51.5068 36.4442 52.0162C35.9334 52.5257 35.2413 52.8115 34.5199 52.8109H7.28631C6.92886 52.8121 6.57468 52.7427 6.24412 52.6067C5.91355 52.4707 5.61311 52.2707 5.36003 52.0182C5.10695 51.7658 4.90622 51.4658 4.76936 51.1356C4.6325 50.8054 4.5622 50.4514 4.5625 50.0939V22.906C4.5622 22.5486 4.6325 22.1946 4.76936 21.8643C4.90622 21.5341 5.10695 21.2342 5.36003 20.9817C5.61311 20.7293 5.91355 20.5293 6.24412 20.3933C6.57468 20.2572 6.92886 20.1878 7.28631 20.189Z" fill="url(#paint0_linear_2001_739)"/>
<path d="M13.0031 45.3353L18.7313 36.4749L13.4845 27.6647H17.6979L20.5609 33.3063C20.8255 33.8401 21.0171 34.237 21.1038 34.5016H21.1426C21.3297 34.0743 21.5274 33.6591 21.7357 33.2561L24.7972 27.6739H28.6753L23.2938 36.4339L28.8122 45.3421H24.6854L21.3776 39.1577C21.2244 38.8916 21.0939 38.613 20.9875 38.325H20.9327C20.8361 38.6057 20.7075 38.8744 20.5495 39.1257L17.1436 45.3353H13.0031Z" fill="white"/>
<path d="M65.7137 6.84377H44.6691V21.6719H68.4375V9.56073C68.4378 9.20328 68.3675 8.84928 68.2306 8.51906C68.0938 8.18883 67.893 7.88889 67.6399 7.63645C67.3869 7.38401 67.0864 7.18403 66.7559 7.048C66.4253 6.91197 66.0711 6.84256 65.7137 6.84377Z" fill="#33C481"/>
<path d="M44.6691 36.5H68.4375V51.3281H44.6691V36.5Z" fill="#107C41"/>
<defs>
<linearGradient id="paint0_linear_2001_739" x1="10.2519" y1="18.0538" x2="31.5542" y2="54.9462" gradientUnits="userSpaceOnUse">
<stop stop-color="#18884F"/>
<stop offset="0.5" stop-color="#117E43"/>
<stop offset="1" stop-color="#0B6631"/>
</linearGradient>
</defs>
</svg>
