<svg width="67" height="67" viewBox="0 0 67 67" fill="none" xmlns="http://www.w3.org/2000/svg">
<path d="M50.4594 4.33826L62.109 16.482V62.6618H18.5905V62.8125H62.2577V16.6349L50.4594 4.33826Z" fill="#909090"/>
<path d="M50.3149 4.1875H18.4418V62.6617H62.109V16.4841L50.3149 4.1875Z" fill="#F4F4F4"/>
<path d="M18.1214 7.32812H4.74231V21.6222H46.8267V7.32812H18.1214Z" fill="#7A7B7C"/>
<path d="M47.0507 21.3793H5.01453V7.07477H47.0507V21.3793Z" fill="#DD2025"/>
<path d="M18.9526 9.49308H16.2161V19.5431H18.3684V16.1533L18.8437 16.1805C19.3057 16.1742 19.7634 16.0914 20.1984 15.9356C20.5807 15.8057 20.9322 15.5983 21.2306 15.3263C21.5366 15.0697 21.7771 14.7438 21.932 14.3757C22.144 13.7658 22.219 13.1167 22.1518 12.4746C22.1399 12.0157 22.0595 11.5613 21.9132 11.1262C21.7813 10.8117 21.5853 10.5283 21.3376 10.2939C21.0899 10.0596 20.796 9.87952 20.4748 9.76527C20.1978 9.66269 19.9107 9.5897 19.6184 9.54752C19.3976 9.51156 19.1742 9.49336 18.9505 9.49308M18.5548 14.2961H18.3684V11.1974H18.7725C18.9509 11.1845 19.1298 11.2119 19.2962 11.2775C19.4625 11.3431 19.612 11.4452 19.7336 11.5764C19.9855 11.9135 20.1201 12.3238 20.1167 12.7447C20.1167 13.2597 20.1167 13.7266 19.6519 14.0554C19.3171 14.2398 18.9359 14.3248 18.5548 14.2961ZM26.2409 9.46587C26.0085 9.46587 25.7824 9.48262 25.6233 9.4889L25.125 9.50146H23.4918V19.5515H25.4139C26.1484 19.5703 26.8795 19.4459 27.5663 19.1851C28.1193 18.9667 28.6088 18.6132 28.99 18.157C29.3637 17.6988 29.6304 17.1631 29.771 16.5888C29.9361 15.9396 30.0164 15.2717 30.0097 14.6018C30.0507 13.8107 29.9895 13.0176 29.8275 12.2422C29.6725 11.672 29.3856 11.1463 28.99 10.7075C28.6797 10.3526 28.298 10.0672 27.8699 9.86996C27.5031 9.69995 27.1172 9.57481 26.7204 9.49727C26.5626 9.47141 26.4029 9.4595 26.243 9.46168M25.862 17.7048H25.6526V11.2895H25.6798C26.1115 11.2396 26.5483 11.3175 26.9361 11.5136C27.2201 11.7404 27.4516 12.0261 27.6144 12.3511C27.7902 12.693 27.8916 13.0684 27.9118 13.4524C27.9306 13.913 27.9118 14.2899 27.9118 14.6018C27.9195 14.9612 27.8964 15.3205 27.8427 15.6759C27.7768 16.0404 27.6576 16.3931 27.4888 16.7228C27.2982 17.0303 27.0378 17.2885 26.7288 17.4766C26.4707 17.6441 26.1646 17.722 25.8578 17.6985M36.494 9.50146H31.4062V19.5515H33.5586V15.565H36.2805V13.6973H33.5586V11.3691H36.4898V9.50146" fill="#464648"/>
<path d="M45.6039 42.4089C45.6039 42.4089 52.2788 41.1987 52.2788 43.4788C52.2788 45.7589 48.1437 44.8314 45.6039 42.4089ZM40.669 42.5827C39.6083 42.8164 38.5747 43.1595 37.5849 43.6065L38.4224 41.7222C39.2599 39.8378 40.1288 37.2688 40.1288 37.2688C41.1257 38.9524 42.2886 40.532 43.6002 41.9839C42.6128 42.131 41.6342 42.3323 40.669 42.5869V42.5827ZM38.0267 28.9733C38.0267 26.9864 38.6694 26.4441 39.1698 26.4441C39.6702 26.4441 40.2335 26.6849 40.2523 28.4101C40.089 30.1449 39.7258 31.8549 39.1698 33.5063C38.4057 32.1208 38.0112 30.5618 38.0246 28.9796L38.0267 28.9733ZM28.2928 50.9912C26.2451 49.7664 32.5871 45.9955 33.7366 45.8741C33.7303 45.8762 30.4368 52.2726 28.2928 50.9912ZM54.2281 43.7489C54.2072 43.5395 54.0187 41.2218 49.894 41.3202C48.1747 41.29 46.4561 41.4112 44.7581 41.6824C43.1121 40.0257 41.6953 38.1561 40.5454 36.1235C41.2695 34.0283 41.7082 31.8451 41.8498 29.6328C41.7891 27.1203 41.1882 25.6798 39.262 25.7008C37.3357 25.7217 37.0552 27.4072 37.3085 29.9155C37.5565 31.6011 38.0246 33.2469 38.7008 34.8107C38.7008 34.8107 37.811 37.5807 36.6343 40.3361C35.4576 43.0915 34.6536 44.5362 34.6536 44.5362C32.6072 45.2015 30.6808 46.1912 28.9482 47.4674C27.2229 49.0733 26.5215 50.3065 27.4302 51.5398C28.2132 52.6034 30.954 52.8442 33.4037 49.6344C34.703 47.975 35.892 46.232 36.963 44.4168C36.963 44.4168 40.6983 43.393 41.8603 43.1124C43.0223 42.8318 44.4272 42.6099 44.4272 42.6099C44.4272 42.6099 47.838 46.0416 51.1272 45.9201C54.4165 45.7987 54.2574 43.9541 54.2365 43.7531" fill="#DD2025"/>
<path d="M50.1537 4.34869V16.6453H61.9478L50.1537 4.34869Z" fill="#909090"/>
<path d="M50.3149 4.1875V16.4841H62.109L50.3149 4.1875Z" fill="#F4F4F4"/>
<path d="M18.7915 9.33183H16.0549V19.3818H18.2157V15.9941L18.6931 16.0214C19.155 16.015 19.6128 15.9322 20.0477 15.7764C20.4301 15.6466 20.7815 15.4391 21.0799 15.1671C21.3837 14.9098 21.6219 14.584 21.7751 14.2165C21.987 13.6067 22.0621 12.9576 21.9949 12.3154C21.983 11.8566 21.9025 11.4021 21.7562 10.967C21.6244 10.6526 21.4283 10.3691 21.1807 10.1348C20.933 9.90042 20.6391 9.72036 20.3178 9.60611C20.0396 9.50253 19.7511 9.42884 19.4573 9.38627C19.2365 9.35031 19.0131 9.3321 18.7894 9.33183M18.3936 14.1349H18.2073V11.0361H18.6135C18.7918 11.0233 18.9708 11.0507 19.1371 11.1163C19.3035 11.1819 19.453 11.284 19.5745 11.4151C19.8264 11.7522 19.961 12.1626 19.9577 12.5834C19.9577 13.0985 19.9577 13.5654 19.4929 13.8941C19.1581 14.0785 18.7769 14.1615 18.3957 14.1328M26.0798 9.30461C25.8474 9.30461 25.6213 9.32136 25.4622 9.32764L24.9701 9.3402H23.337V19.3902H25.2591C25.9935 19.4091 26.7246 19.2846 27.4114 19.0238C27.9644 18.8054 28.4539 18.452 28.8352 17.9958C29.2088 17.5376 29.4756 17.0018 29.6162 16.4275C29.7813 15.7783 29.8615 15.1104 29.8548 14.4406C29.8958 13.6495 29.8346 12.8564 29.6727 12.0809C29.5177 11.5108 29.2308 10.9851 28.8352 10.5462C28.5249 10.1913 28.1432 9.90595 27.715 9.70871C27.3483 9.53869 26.9623 9.41356 26.5656 9.33602C26.4078 9.31016 26.248 9.29825 26.0882 9.30042M25.7071 17.5435H25.4977V11.1283H25.525C25.9566 11.0784 26.3934 11.1563 26.7812 11.3523C27.0653 11.5791 27.2967 11.8648 27.4596 12.1898C27.6354 12.5318 27.7367 12.9071 27.7569 13.2911C27.7757 13.7517 27.7569 14.1286 27.7569 14.4406C27.7646 14.7999 27.7415 15.1593 27.6878 15.5147C27.6219 15.8791 27.5027 16.2319 27.334 16.5615C27.1433 16.869 26.883 17.1272 26.5739 17.3153C26.3158 17.4828 26.0097 17.5608 25.7029 17.5372M36.3329 9.3402H31.2451V19.3902H33.3975V15.4037H36.1193V13.5361H33.3975V11.2078H36.3287V9.3402" fill="white"/>
</svg>
