<svg width="67" height="67" viewBox="0 0 67 67" fill="none" xmlns="http://www.w3.org/2000/svg">
<path d="M60.3126 6.28126H20.3199C19.992 6.28044 19.6671 6.34434 19.364 6.46932C19.0608 6.59429 18.7853 6.77787 18.5533 7.00954C18.3212 7.24121 18.1372 7.5164 18.0117 7.81934C17.8862 8.12229 17.8217 8.44702 17.822 8.77492V19.8906L40.9977 26.6953L62.8125 19.8906V8.77492C62.8128 8.44684 62.7483 8.12194 62.6227 7.81886C62.4971 7.51578 62.3128 7.24049 62.0805 7.0088C61.8483 6.7771 61.5725 6.59356 61.2691 6.46871C60.9657 6.34386 60.6407 6.28016 60.3126 6.28126Z" fill="#41A5EE"/>
<path d="M62.8125 19.8906H17.822V33.5L40.9977 37.5828L62.8125 33.5V19.8906Z" fill="#2B7CD3"/>
<path d="M17.822 33.5V47.1094L39.6347 49.8312L62.8125 47.1094V33.5H17.822Z" fill="#185ABD"/>
<path d="M20.3199 60.7188H60.3105C60.6387 60.7201 60.964 60.6566 61.2677 60.5319C61.5713 60.4072 61.8473 60.2237 62.0798 59.992C62.3123 59.7602 62.4967 59.4849 62.6225 59.1816C62.7482 58.8784 62.8128 58.5533 62.8125 58.2251V47.1094H17.822V58.2251C17.8217 58.553 17.8862 58.8777 18.0117 59.1807C18.1372 59.4836 18.3212 59.7588 18.5533 59.9905C18.7853 60.2221 19.0608 60.4057 19.364 60.5307C19.6671 60.6557 19.992 60.7196 20.3199 60.7188Z" fill="#103F91"/>
<path opacity="0.1" d="M34.4087 17.1688H17.822V51.1922H34.4087C35.0696 51.1889 35.7026 50.9253 36.1706 50.4586C36.6385 49.9918 36.9037 49.3595 36.9086 48.6985V19.6624C36.9037 19.0015 36.6385 18.3692 36.1706 17.9024C35.7026 17.4356 35.0696 17.172 34.4087 17.1688Z" fill="black"/>
<path opacity="0.2" d="M33.0457 18.5297H17.822V52.5531H33.0457C33.7066 52.5498 34.3396 52.2862 34.8076 51.8195C35.2755 51.3527 35.5407 50.7204 35.5456 50.0594V21.0233C35.5407 20.3624 35.2755 19.7301 34.8076 19.2633C34.3396 18.7965 33.7066 18.5329 33.0457 18.5297Z" fill="black"/>
<path opacity="0.2" d="M33.0457 18.5297H17.822V49.8312H33.0457C33.7066 49.8279 34.3396 49.5644 34.8076 49.0976C35.2755 48.6308 35.5407 47.9985 35.5456 47.3376V21.0233C35.5407 20.3624 35.2755 19.7301 34.8076 19.2633C34.3396 18.7965 33.7066 18.5329 33.0457 18.5297Z" fill="black"/>
<path opacity="0.2" d="M31.6826 18.5297H17.822V49.8312H31.6826C32.3436 49.8279 32.9766 49.5644 33.4445 49.0976C33.9125 48.6308 34.1776 47.9985 34.1826 47.3376V21.0233C34.1776 20.3624 33.9125 19.7301 33.4445 19.2633C32.9766 18.7965 32.3436 18.5329 31.6826 18.5297Z" fill="black"/>
<path d="M6.68744 18.5297H31.6826C32.3447 18.5291 32.98 18.7915 33.4487 19.2591C33.9175 19.7266 34.1815 20.3612 34.1826 21.0233V45.9766C34.1815 46.6388 33.9175 47.2733 33.4487 47.7409C32.98 48.2085 32.3447 48.4709 31.6826 48.4703H6.68744C6.35936 48.4714 6.0343 48.4077 5.7309 48.2829C5.42751 48.158 5.15176 47.9745 4.91948 47.7428C4.6872 47.5111 4.50297 47.2358 4.37736 46.9327C4.25174 46.6296 4.18722 46.3047 4.1875 45.9766V21.0233C4.18722 20.6953 4.25174 20.3704 4.37736 20.0673C4.50297 19.7642 4.6872 19.4889 4.91948 19.2572C5.15176 19.0255 5.42751 18.842 5.7309 18.7171C6.0343 18.5923 6.35936 18.5286 6.68744 18.5297Z" fill="url(#paint0_linear_2001_728)"/>
<path d="M14.4469 37.6623C14.4957 38.0476 14.5278 38.3833 14.5432 38.6694H14.6018C14.6228 38.3973 14.6681 38.0692 14.7379 37.6854C14.8426 37.1096 14.8677 36.9777 14.9243 36.7118L17.5519 25.3909H20.9522L23.674 36.5422C23.8312 37.2322 23.9445 37.9316 24.0132 38.6359H24.0593C24.1115 37.9503 24.2059 37.2686 24.342 36.5945L26.5174 25.3762H29.6098L25.7908 41.5986H22.1749L19.585 30.866C19.5096 30.5562 19.4244 30.1528 19.3295 29.6558C19.2346 29.1589 19.176 28.796 19.1536 28.5671H19.1097C19.0804 28.8309 19.0217 29.2224 18.9338 29.7417C18.8459 30.2609 18.7761 30.6462 18.7244 30.8974L16.2894 41.6049H12.6128L8.77283 25.3909H11.9135L14.2815 36.7348C14.3505 37.0414 14.4057 37.3508 14.4469 37.6623Z" fill="white"/>
<defs>
<linearGradient id="paint0_linear_2001_728" x1="9.40931" y1="16.5699" x2="28.9607" y2="50.4301" gradientUnits="userSpaceOnUse">
<stop stop-color="#2368C4"/>
<stop offset="0.5" stop-color="#1A5DBE"/>
<stop offset="1" stop-color="#1146AC"/>
</linearGradient>
</defs>
</svg>
